<?xml version="1.0" standalone="no"?>
 <!DOCTYPE svg PUBLIC "-//W3C//DTD SVG 1.1//EN" 
 "http://www.w3.org/Graphics/SVG/1.1/DTD/svg11.dtd"> 
<svg
  xmlns:svg="http://www.w3.org/2000/svg"
  xmlns="http://www.w3.org/2000/svg"
  xmlns:xlink="http://www.w3.org/1999/xlink"
  version="1.1"
  width="327.7108mm" height="103.8352mm" viewBox="0.0000 0.0000 327.7108 103.8352">
<title>SVG Image created as Joker60_v3-User_2.svg date 2023/07/25 21:58:57 </title>
  <desc>Image generated by PCBNEW </desc>
<g style="fill:#000000; fill-opacity:1.0000;stroke:#000000; stroke-opacity:1.0000;
stroke-linecap:round; stroke-linejoin:round;"
 transform="translate(0 0) scale(1 1)">
</g>
<g style="fill:#000000; fill-opacity:0.0; 
stroke:#000000; stroke-width:0.0000; stroke-opacity:1; 
stroke-linecap:round; stroke-linejoin:round;">
</g>
<g style="fill:#000000; fill-opacity:0.0; 
stroke:#000000; stroke-width:0.1500; stroke-opacity:1; 
stroke-linecap:round; stroke-linejoin:round;">
<text x="37.5732" y="95.5250"
textLength="9.7940" font-size="1.3333" lengthAdjust="spacingAndGlyphs"
text-anchor="middle" opacity="0">20.3000 mm</text>
<g class="stroked-text"><desc>20.3000 mm</desc>
<path d="M32.9542 94.5751
L33.0018 94.5274
" />
<path d="M33.0018 94.5274
L33.0970 94.4798
" />
<path d="M33.0970 94.4798
L33.3351 94.4798
" />
<path d="M33.3351 94.4798
L33.4304 94.5274
" />
<path d="M33.4304 94.5274
L33.4780 94.5751
" />
<path d="M33.4780 94.5751
L33.5256 94.6703
" />
<path d="M33.5256 94.6703
L33.5256 94.7655
" />
<path d="M33.5256 94.7655
L33.4780 94.9084
" />
<path d="M33.4780 94.9084
L32.9065 95.4798
" />
<path d="M32.9065 95.4798
L33.5256 95.4798
" />
<path d="M34.1446 94.4798
L34.2399 94.4798
" />
<path d="M34.2399 94.4798
L34.3351 94.5274
" />
<path d="M34.3351 94.5274
L34.3827 94.5751
" />
<path d="M34.3827 94.5751
L34.4304 94.6703
" />
<path d="M34.4304 94.6703
L34.4780 94.8608
" />
<path d="M34.4780 94.8608
L34.4780 95.0989
" />
<path d="M34.4780 95.0989
L34.4304 95.2893
" />
<path d="M34.4304 95.2893
L34.3827 95.3846
" />
<path d="M34.3827 95.3846
L34.3351 95.4322
" />
<path d="M34.3351 95.4322
L34.2399 95.4798
" />
<path d="M34.2399 95.4798
L34.1446 95.4798
" />
<path d="M34.1446 95.4798
L34.0494 95.4322
" />
<path d="M34.0494 95.4322
L34.0018 95.3846
" />
<path d="M34.0018 95.3846
L33.9542 95.2893
" />
<path d="M33.9542 95.2893
L33.9065 95.0989
" />
<path d="M33.9065 95.0989
L33.9065 94.8608
" />
<path d="M33.9065 94.8608
L33.9542 94.6703
" />
<path d="M33.9542 94.6703
L34.0018 94.5751
" />
<path d="M34.0018 94.5751
L34.0494 94.5274
" />
<path d="M34.0494 94.5274
L34.1446 94.4798
" />
<path d="M34.9065 95.3846
L34.9542 95.4322
" />
<path d="M34.9542 95.4322
L34.9065 95.4798
" />
<path d="M34.9065 95.4798
L34.8589 95.4322
" />
<path d="M34.8589 95.4322
L34.9065 95.3846
" />
<path d="M34.9065 95.3846
L34.9065 95.4798
" />
<path d="M35.2875 94.4798
L35.9065 94.4798
" />
<path d="M35.9065 94.4798
L35.5732 94.8608
" />
<path d="M35.5732 94.8608
L35.7161 94.8608
" />
<path d="M35.7161 94.8608
L35.8113 94.9084
" />
<path d="M35.8113 94.9084
L35.8589 94.9560
" />
<path d="M35.8589 94.9560
L35.9065 95.0512
" />
<path d="M35.9065 95.0512
L35.9065 95.2893
" />
<path d="M35.9065 95.2893
L35.8589 95.3846
" />
<path d="M35.8589 95.3846
L35.8113 95.4322
" />
<path d="M35.8113 95.4322
L35.7161 95.4798
" />
<path d="M35.7161 95.4798
L35.4304 95.4798
" />
<path d="M35.4304 95.4798
L35.3351 95.4322
" />
<path d="M35.3351 95.4322
L35.2875 95.3846
" />
<path d="M36.5256 94.4798
L36.6208 94.4798
" />
<path d="M36.6208 94.4798
L36.7161 94.5274
" />
<path d="M36.7161 94.5274
L36.7637 94.5751
" />
<path d="M36.7637 94.5751
L36.8113 94.6703
" />
<path d="M36.8113 94.6703
L36.8589 94.8608
" />
<path d="M36.8589 94.8608
L36.8589 95.0989
" />
<path d="M36.8589 95.0989
L36.8113 95.2893
" />
<path d="M36.8113 95.2893
L36.7637 95.3846
" />
<path d="M36.7637 95.3846
L36.7161 95.4322
" />
<path d="M36.7161 95.4322
L36.6208 95.4798
" />
<path d="M36.6208 95.4798
L36.5256 95.4798
" />
<path d="M36.5256 95.4798
L36.4304 95.4322
" />
<path d="M36.4304 95.4322
L36.3827 95.3846
" />
<path d="M36.3827 95.3846
L36.3351 95.2893
" />
<path d="M36.3351 95.2893
L36.2875 95.0989
" />
<path d="M36.2875 95.0989
L36.2875 94.8608
" />
<path d="M36.2875 94.8608
L36.3351 94.6703
" />
<path d="M36.3351 94.6703
L36.3827 94.5751
" />
<path d="M36.3827 94.5751
L36.4304 94.5274
" />
<path d="M36.4304 94.5274
L36.5256 94.4798
" />
<path d="M37.4780 94.4798
L37.5732 94.4798
" />
<path d="M37.5732 94.4798
L37.6685 94.5274
" />
<path d="M37.6685 94.5274
L37.7161 94.5751
" />
<path d="M37.7161 94.5751
L37.7637 94.6703
" />
<path d="M37.7637 94.6703
L37.8113 94.8608
" />
<path d="M37.8113 94.8608
L37.8113 95.0989
" />
<path d="M37.8113 95.0989
L37.7637 95.2893
" />
<path d="M37.7637 95.2893
L37.7161 95.3846
" />
<path d="M37.7161 95.3846
L37.6685 95.4322
" />
<path d="M37.6685 95.4322
L37.5732 95.4798
" />
<path d="M37.5732 95.4798
L37.4780 95.4798
" />
<path d="M37.4780 95.4798
L37.3827 95.4322
" />
<path d="M37.3827 95.4322
L37.3351 95.3846
" />
<path d="M37.3351 95.3846
L37.2875 95.2893
" />
<path d="M37.2875 95.2893
L37.2399 95.0989
" />
<path d="M37.2399 95.0989
L37.2399 94.8608
" />
<path d="M37.2399 94.8608
L37.2875 94.6703
" />
<path d="M37.2875 94.6703
L37.3351 94.5751
" />
<path d="M37.3351 94.5751
L37.3827 94.5274
" />
<path d="M37.3827 94.5274
L37.4780 94.4798
" />
<path d="M38.4304 94.4798
L38.5256 94.4798
" />
<path d="M38.5256 94.4798
L38.6208 94.5274
" />
<path d="M38.6208 94.5274
L38.6685 94.5751
" />
<path d="M38.6685 94.5751
L38.7161 94.6703
" />
<path d="M38.7161 94.6703
L38.7637 94.8608
" />
<path d="M38.7637 94.8608
L38.7637 95.0989
" />
<path d="M38.7637 95.0989
L38.7161 95.2893
" />
<path d="M38.7161 95.2893
L38.6685 95.3846
" />
<path d="M38.6685 95.3846
L38.6208 95.4322
" />
<path d="M38.6208 95.4322
L38.5256 95.4798
" />
<path d="M38.5256 95.4798
L38.4304 95.4798
" />
<path d="M38.4304 95.4798
L38.3351 95.4322
" />
<path d="M38.3351 95.4322
L38.2875 95.3846
" />
<path d="M38.2875 95.3846
L38.2399 95.2893
" />
<path d="M38.2399 95.2893
L38.1923 95.0989
" />
<path d="M38.1923 95.0989
L38.1923 94.8608
" />
<path d="M38.1923 94.8608
L38.2399 94.6703
" />
<path d="M38.2399 94.6703
L38.2875 94.5751
" />
<path d="M38.2875 94.5751
L38.3351 94.5274
" />
<path d="M38.3351 94.5274
L38.4304 94.4798
" />
<path d="M39.9542 95.4798
L39.9542 94.8132
" />
<path d="M39.9542 94.9084
L40.0018 94.8608
" />
<path d="M40.0018 94.8608
L40.0970 94.8132
" />
<path d="M40.0970 94.8132
L40.2399 94.8132
" />
<path d="M40.2399 94.8132
L40.3351 94.8608
" />
<path d="M40.3351 94.8608
L40.3827 94.9560
" />
<path d="M40.3827 94.9560
L40.3827 95.4798
" />
<path d="M40.3827 94.9560
L40.4304 94.8608
" />
<path d="M40.4304 94.8608
L40.5256 94.8132
" />
<path d="M40.5256 94.8132
L40.6685 94.8132
" />
<path d="M40.6685 94.8132
L40.7637 94.8608
" />
<path d="M40.7637 94.8608
L40.8113 94.9560
" />
<path d="M40.8113 94.9560
L40.8113 95.4798
" />
<path d="M41.2875 95.4798
L41.2875 94.8132
" />
<path d="M41.2875 94.9084
L41.3351 94.8608
" />
<path d="M41.3351 94.8608
L41.4304 94.8132
" />
<path d="M41.4304 94.8132
L41.5732 94.8132
" />
<path d="M41.5732 94.8132
L41.6685 94.8608
" />
<path d="M41.6685 94.8608
L41.7161 94.9560
" />
<path d="M41.7161 94.9560
L41.7161 95.4798
" />
<path d="M41.7161 94.9560
L41.7637 94.8608
" />
<path d="M41.7637 94.8608
L41.8589 94.8132
" />
<path d="M41.8589 94.8132
L42.0018 94.8132
" />
<path d="M42.0018 94.8132
L42.0970 94.8608
" />
<path d="M42.0970 94.8608
L42.1446 94.9560
" />
<path d="M42.1446 94.9560
L42.1446 95.4798
" />
</g><path d="M27.4232 100.6750
L27.4232 95.5886
" />
<path d="M47.7232 100.6750
L47.7232 95.5886
" />
<path d="M27.4232 96.1750
L47.7232 96.1750
" />
<path d="M27.4232 96.1750
L47.7232 96.1750
" />
<path d="M27.4232 96.1750
L28.5497 95.5886
" />
<path d="M27.4232 96.1750
L28.5497 96.7614
" />
<path d="M47.7232 96.1750
L46.5967 96.7614
" />
<path d="M47.7232 96.1750
L46.5967 95.5886
" />
<g transform="rotate(-90.000000 26.2732 102.4750)">
<text x="26.2732" y="102.9750"
textLength="8.8417" font-size="1.3333" lengthAdjust="spacingAndGlyphs"
text-anchor="middle" opacity="0">2.6000 mm</text>
</g>
<g class="stroked-text"><desc>2.6000 mm</desc>
<path d="M25.8233 106.6179
L25.7757 106.5702
" />
<path d="M25.7757 106.5702
L25.7280 106.4750
" />
<path d="M25.7280 106.4750
L25.7280 106.2369
" />
<path d="M25.7280 106.2369
L25.7757 106.1417
" />
<path d="M25.7757 106.1417
L25.8233 106.0940
" />
<path d="M25.8233 106.0940
L25.9185 106.0464
" />
<path d="M25.9185 106.0464
L26.0137 106.0464
" />
<path d="M26.0137 106.0464
L26.1566 106.0940
" />
<path d="M26.1566 106.0940
L26.7280 106.6655
" />
<path d="M26.7280 106.6655
L26.7280 106.0464
" />
<path d="M26.6328 105.6179
L26.6804 105.5702
" />
<path d="M26.6804 105.5702
L26.7280 105.6179
" />
<path d="M26.7280 105.6179
L26.6804 105.6655
" />
<path d="M26.6804 105.6655
L26.6328 105.6179
" />
<path d="M26.6328 105.6179
L26.7280 105.6179
" />
<path d="M25.7280 104.7131
L25.7280 104.9036
" />
<path d="M25.7280 104.9036
L25.7757 104.9988
" />
<path d="M25.7757 104.9988
L25.8233 105.0464
" />
<path d="M25.8233 105.0464
L25.9661 105.1417
" />
<path d="M25.9661 105.1417
L26.1566 105.1893
" />
<path d="M26.1566 105.1893
L26.5376 105.1893
" />
<path d="M26.5376 105.1893
L26.6328 105.1417
" />
<path d="M26.6328 105.1417
L26.6804 105.0940
" />
<path d="M26.6804 105.0940
L26.7280 104.9988
" />
<path d="M26.7280 104.9988
L26.7280 104.8083
" />
<path d="M26.7280 104.8083
L26.6804 104.7131
" />
<path d="M26.6804 104.7131
L26.6328 104.6655
" />
<path d="M26.6328 104.6655
L26.5376 104.6179
" />
<path d="M26.5376 104.6179
L26.2995 104.6179
" />
<path d="M26.2995 104.6179
L26.2042 104.6655
" />
<path d="M26.2042 104.6655
L26.1566 104.7131
" />
<path d="M26.1566 104.7131
L26.1090 104.8083
" />
<path d="M26.1090 104.8083
L26.1090 104.9988
" />
<path d="M26.1090 104.9988
L26.1566 105.0940
" />
<path d="M26.1566 105.0940
L26.2042 105.1417
" />
<path d="M26.2042 105.1417
L26.2995 105.1893
" />
<path d="M25.7280 103.9988
L25.7280 103.9036
" />
<path d="M25.7280 103.9036
L25.7757 103.8083
" />
<path d="M25.7757 103.8083
L25.8233 103.7607
" />
<path d="M25.8233 103.7607
L25.9185 103.7131
" />
<path d="M25.9185 103.7131
L26.1090 103.6655
" />
<path d="M26.1090 103.6655
L26.3471 103.6655
" />
<path d="M26.3471 103.6655
L26.5376 103.7131
" />
<path d="M26.5376 103.7131
L26.6328 103.7607
" />
<path d="M26.6328 103.7607
L26.6804 103.8083
" />
<path d="M26.6804 103.8083
L26.7280 103.9036
" />
<path d="M26.7280 103.9036
L26.7280 103.9988
" />
<path d="M26.7280 103.9988
L26.6804 104.0940
" />
<path d="M26.6804 104.0940
L26.6328 104.1417
" />
<path d="M26.6328 104.1417
L26.5376 104.1893
" />
<path d="M26.5376 104.1893
L26.3471 104.2369
" />
<path d="M26.3471 104.2369
L26.1090 104.2369
" />
<path d="M26.1090 104.2369
L25.9185 104.1893
" />
<path d="M25.9185 104.1893
L25.8233 104.1417
" />
<path d="M25.8233 104.1417
L25.7757 104.0940
" />
<path d="M25.7757 104.0940
L25.7280 103.9988
" />
<path d="M25.7280 103.0464
L25.7280 102.9512
" />
<path d="M25.7280 102.9512
L25.7757 102.8560
" />
<path d="M25.7757 102.8560
L25.8233 102.8083
" />
<path d="M25.8233 102.8083
L25.9185 102.7607
" />
<path d="M25.9185 102.7607
L26.1090 102.7131
" />
<path d="M26.1090 102.7131
L26.3471 102.7131
" />
<path d="M26.3471 102.7131
L26.5376 102.7607
" />
<path d="M26.5376 102.7607
L26.6328 102.8083
" />
<path d="M26.6328 102.8083
L26.6804 102.8560
" />
<path d="M26.6804 102.8560
L26.7280 102.9512
" />
<path d="M26.7280 102.9512
L26.7280 103.0464
" />
<path d="M26.7280 103.0464
L26.6804 103.1417
" />
<path d="M26.6804 103.1417
L26.6328 103.1893
" />
<path d="M26.6328 103.1893
L26.5376 103.2369
" />
<path d="M26.5376 103.2369
L26.3471 103.2845
" />
<path d="M26.3471 103.2845
L26.1090 103.2845
" />
<path d="M26.1090 103.2845
L25.9185 103.2369
" />
<path d="M25.9185 103.2369
L25.8233 103.1893
" />
<path d="M25.8233 103.1893
L25.7757 103.1417
" />
<path d="M25.7757 103.1417
L25.7280 103.0464
" />
<path d="M25.7280 102.0940
L25.7280 101.9988
" />
<path d="M25.7280 101.9988
L25.7757 101.9036
" />
<path d="M25.7757 101.9036
L25.8233 101.8560
" />
<path d="M25.8233 101.8560
L25.9185 101.8083
" />
<path d="M25.9185 101.8083
L26.1090 101.7607
" />
<path d="M26.1090 101.7607
L26.3471 101.7607
" />
<path d="M26.3471 101.7607
L26.5376 101.8083
" />
<path d="M26.5376 101.8083
L26.6328 101.8560
" />
<path d="M26.6328 101.8560
L26.6804 101.9036
" />
<path d="M26.6804 101.9036
L26.7280 101.9988
" />
<path d="M26.7280 101.9988
L26.7280 102.0940
" />
<path d="M26.7280 102.0940
L26.6804 102.1893
" />
<path d="M26.6804 102.1893
L26.6328 102.2369
" />
<path d="M26.6328 102.2369
L26.5376 102.2845
" />
<path d="M26.5376 102.2845
L26.3471 102.3321
" />
<path d="M26.3471 102.3321
L26.1090 102.3321
" />
<path d="M26.1090 102.3321
L25.9185 102.2845
" />
<path d="M25.9185 102.2845
L25.8233 102.2369
" />
<path d="M25.8233 102.2369
L25.7757 102.1893
" />
<path d="M25.7757 102.1893
L25.7280 102.0940
" />
<path d="M26.7280 100.5702
L26.0614 100.5702
" />
<path d="M26.1566 100.5702
L26.1090 100.5226
" />
<path d="M26.1090 100.5226
L26.0614 100.4274
" />
<path d="M26.0614 100.4274
L26.0614 100.2845
" />
<path d="M26.0614 100.2845
L26.1090 100.1893
" />
<path d="M26.1090 100.1893
L26.2042 100.1417
" />
<path d="M26.2042 100.1417
L26.7280 100.1417
" />
<path d="M26.2042 100.1417
L26.1090 100.0940
" />
<path d="M26.1090 100.0940
L26.0614 99.9988
" />
<path d="M26.0614 99.9988
L26.0614 99.8560
" />
<path d="M26.0614 99.8560
L26.1090 99.7607
" />
<path d="M26.1090 99.7607
L26.2042 99.7131
" />
<path d="M26.2042 99.7131
L26.7280 99.7131
" />
<path d="M26.7280 99.2369
L26.0614 99.2369
" />
<path d="M26.1566 99.2369
L26.1090 99.1893
" />
<path d="M26.1090 99.1893
L26.0614 99.0940
" />
<path d="M26.0614 99.0940
L26.0614 98.9512
" />
<path d="M26.0614 98.9512
L26.1090 98.8560
" />
<path d="M26.1090 98.8560
L26.2042 98.8083
" />
<path d="M26.2042 98.8083
L26.7280 98.8083
" />
<path d="M26.2042 98.8083
L26.1090 98.7607
" />
<path d="M26.1090 98.7607
L26.0614 98.6655
" />
<path d="M26.0614 98.6655
L26.0614 98.5226
" />
<path d="M26.0614 98.5226
L26.1090 98.4274
" />
<path d="M26.1090 98.4274
L26.2042 98.3798
" />
<path d="M26.2042 98.3798
L26.7280 98.3798
" />
</g><path d="M27.9232 101.1750
L28.0096 101.1750
" />
<path d="M27.9232 103.7750
L28.0096 103.7750
" />
<path d="M27.4232 101.1750
L27.4232 103.7750
" />
<path d="M27.4232 101.1750
L27.4232 103.7750
" />
<path d="M27.4232 101.1750
L28.0096 102.3015
" />
<path d="M27.4232 101.1750
L26.8368 102.3015
" />
<path d="M27.4232 103.7750
L26.8368 102.6485
" />
<path d="M27.4232 103.7750
L28.0096 102.6485
" />
<g transform="rotate(-90.000000 17.8732 95.4750)">
<text x="17.8732" y="95.9750"
textLength="9.7940" font-size="1.3333" lengthAdjust="spacingAndGlyphs"
text-anchor="middle" opacity="0">16.6000 mm</text>
</g>
<g class="stroked-text"><desc>16.6000 mm</desc>
<path d="M18.3280 99.5226
L18.3280 100.0940
" />
<path d="M18.3280 99.8083
L17.3280 99.8083
" />
<path d="M17.3280 99.8083
L17.4709 99.9036
" />
<path d="M17.4709 99.9036
L17.5661 99.9988
" />
<path d="M17.5661 99.9988
L17.6137 100.0940
" />
<path d="M17.3280 98.6655
L17.3280 98.8560
" />
<path d="M17.3280 98.8560
L17.3757 98.9512
" />
<path d="M17.3757 98.9512
L17.4233 98.9988
" />
<path d="M17.4233 98.9988
L17.5661 99.0940
" />
<path d="M17.5661 99.0940
L17.7566 99.1417
" />
<path d="M17.7566 99.1417
L18.1376 99.1417
" />
<path d="M18.1376 99.1417
L18.2328 99.0940
" />
<path d="M18.2328 99.0940
L18.2804 99.0464
" />
<path d="M18.2804 99.0464
L18.3280 98.9512
" />
<path d="M18.3280 98.9512
L18.3280 98.7607
" />
<path d="M18.3280 98.7607
L18.2804 98.6655
" />
<path d="M18.2804 98.6655
L18.2328 98.6179
" />
<path d="M18.2328 98.6179
L18.1376 98.5702
" />
<path d="M18.1376 98.5702
L17.8995 98.5702
" />
<path d="M17.8995 98.5702
L17.8042 98.6179
" />
<path d="M17.8042 98.6179
L17.7566 98.6655
" />
<path d="M17.7566 98.6655
L17.7090 98.7607
" />
<path d="M17.7090 98.7607
L17.7090 98.9512
" />
<path d="M17.7090 98.9512
L17.7566 99.0464
" />
<path d="M17.7566 99.0464
L17.8042 99.0940
" />
<path d="M17.8042 99.0940
L17.8995 99.1417
" />
<path d="M18.2328 98.1417
L18.2804 98.0940
" />
<path d="M18.2804 98.0940
L18.3280 98.1417
" />
<path d="M18.3280 98.1417
L18.2804 98.1893
" />
<path d="M18.2804 98.1893
L18.2328 98.1417
" />
<path d="M18.2328 98.1417
L18.3280 98.1417
" />
<path d="M17.3280 97.2369
L17.3280 97.4274
" />
<path d="M17.3280 97.4274
L17.3757 97.5226
" />
<path d="M17.3757 97.5226
L17.4233 97.5702
" />
<path d="M17.4233 97.5702
L17.5661 97.6655
" />
<path d="M17.5661 97.6655
L17.7566 97.7131
" />
<path d="M17.7566 97.7131
L18.1376 97.7131
" />
<path d="M18.1376 97.7131
L18.2328 97.6655
" />
<path d="M18.2328 97.6655
L18.2804 97.6179
" />
<path d="M18.2804 97.6179
L18.3280 97.5226
" />
<path d="M18.3280 97.5226
L18.3280 97.3321
" />
<path d="M18.3280 97.3321
L18.2804 97.2369
" />
<path d="M18.2804 97.2369
L18.2328 97.1893
" />
<path d="M18.2328 97.1893
L18.1376 97.1417
" />
<path d="M18.1376 97.1417
L17.8995 97.1417
" />
<path d="M17.8995 97.1417
L17.8042 97.1893
" />
<path d="M17.8042 97.1893
L17.7566 97.2369
" />
<path d="M17.7566 97.2369
L17.7090 97.3321
" />
<path d="M17.7090 97.3321
L17.7090 97.5226
" />
<path d="M17.7090 97.5226
L17.7566 97.6179
" />
<path d="M17.7566 97.6179
L17.8042 97.6655
" />
<path d="M17.8042 97.6655
L17.8995 97.7131
" />
<path d="M17.3280 96.5226
L17.3280 96.4274
" />
<path d="M17.3280 96.4274
L17.3757 96.3321
" />
<path d="M17.3757 96.3321
L17.4233 96.2845
" />
<path d="M17.4233 96.2845
L17.5185 96.2369
" />
<path d="M17.5185 96.2369
L17.7090 96.1893
" />
<path d="M17.7090 96.1893
L17.9471 96.1893
" />
<path d="M17.9471 96.1893
L18.1376 96.2369
" />
<path d="M18.1376 96.2369
L18.2328 96.2845
" />
<path d="M18.2328 96.2845
L18.2804 96.3321
" />
<path d="M18.2804 96.3321
L18.3280 96.4274
" />
<path d="M18.3280 96.4274
L18.3280 96.5226
" />
<path d="M18.3280 96.5226
L18.2804 96.6179
" />
<path d="M18.2804 96.6179
L18.2328 96.6655
" />
<path d="M18.2328 96.6655
L18.1376 96.7131
" />
<path d="M18.1376 96.7131
L17.9471 96.7607
" />
<path d="M17.9471 96.7607
L17.7090 96.7607
" />
<path d="M17.7090 96.7607
L17.5185 96.7131
" />
<path d="M17.5185 96.7131
L17.4233 96.6655
" />
<path d="M17.4233 96.6655
L17.3757 96.6179
" />
<path d="M17.3757 96.6179
L17.3280 96.5226
" />
<path d="M17.3280 95.5702
L17.3280 95.4750
" />
<path d="M17.3280 95.4750
L17.3757 95.3798
" />
<path d="M17.3757 95.3798
L17.4233 95.3321
" />
<path d="M17.4233 95.3321
L17.5185 95.2845
" />
<path d="M17.5185 95.2845
L17.7090 95.2369
" />
<path d="M17.7090 95.2369
L17.9471 95.2369
" />
<path d="M17.9471 95.2369
L18.1376 95.2845
" />
<path d="M18.1376 95.2845
L18.2328 95.3321
" />
<path d="M18.2328 95.3321
L18.2804 95.3798
" />
<path d="M18.2804 95.3798
L18.3280 95.4750
" />
<path d="M18.3280 95.4750
L18.3280 95.5702
" />
<path d="M18.3280 95.5702
L18.2804 95.6655
" />
<path d="M18.2804 95.6655
L18.2328 95.7131
" />
<path d="M18.2328 95.7131
L18.1376 95.7607
" />
<path d="M18.1376 95.7607
L17.9471 95.8083
" />
<path d="M17.9471 95.8083
L17.7090 95.8083
" />
<path d="M17.7090 95.8083
L17.5185 95.7607
" />
<path d="M17.5185 95.7607
L17.4233 95.7131
" />
<path d="M17.4233 95.7131
L17.3757 95.6655
" />
<path d="M17.3757 95.6655
L17.3280 95.5702
" />
<path d="M17.3280 94.6179
L17.3280 94.5226
" />
<path d="M17.3280 94.5226
L17.3757 94.4274
" />
<path d="M17.3757 94.4274
L17.4233 94.3798
" />
<path d="M17.4233 94.3798
L17.5185 94.3321
" />
<path d="M17.5185 94.3321
L17.7090 94.2845
" />
<path d="M17.7090 94.2845
L17.9471 94.2845
" />
<path d="M17.9471 94.2845
L18.1376 94.3321
" />
<path d="M18.1376 94.3321
L18.2328 94.3798
" />
<path d="M18.2328 94.3798
L18.2804 94.4274
" />
<path d="M18.2804 94.4274
L18.3280 94.5226
" />
<path d="M18.3280 94.5226
L18.3280 94.6179
" />
<path d="M18.3280 94.6179
L18.2804 94.7131
" />
<path d="M18.2804 94.7131
L18.2328 94.7607
" />
<path d="M18.2328 94.7607
L18.1376 94.8083
" />
<path d="M18.1376 94.8083
L17.9471 94.8560
" />
<path d="M17.9471 94.8560
L17.7090 94.8560
" />
<path d="M17.7090 94.8560
L17.5185 94.8083
" />
<path d="M17.5185 94.8083
L17.4233 94.7607
" />
<path d="M17.4233 94.7607
L17.3757 94.7131
" />
<path d="M17.3757 94.7131
L17.3280 94.6179
" />
<path d="M18.3280 93.0940
L17.6614 93.0940
" />
<path d="M17.7566 93.0940
L17.7090 93.0464
" />
<path d="M17.7090 93.0464
L17.6614 92.9512
" />
<path d="M17.6614 92.9512
L17.6614 92.8083
" />
<path d="M17.6614 92.8083
L17.7090 92.7131
" />
<path d="M17.7090 92.7131
L17.8042 92.6655
" />
<path d="M17.8042 92.6655
L18.3280 92.6655
" />
<path d="M17.8042 92.6655
L17.7090 92.6179
" />
<path d="M17.7090 92.6179
L17.6614 92.5226
" />
<path d="M17.6614 92.5226
L17.6614 92.3798
" />
<path d="M17.6614 92.3798
L17.7090 92.2845
" />
<path d="M17.7090 92.2845
L17.8042 92.2369
" />
<path d="M17.8042 92.2369
L18.3280 92.2369
" />
<path d="M18.3280 91.7607
L17.6614 91.7607
" />
<path d="M17.7566 91.7607
L17.7090 91.7131
" />
<path d="M17.7090 91.7131
L17.6614 91.6179
" />
<path d="M17.6614 91.6179
L17.6614 91.4750
" />
<path d="M17.6614 91.4750
L17.7090 91.3798
" />
<path d="M17.7090 91.3798
L17.8042 91.3321
" />
<path d="M17.8042 91.3321
L18.3280 91.3321
" />
<path d="M17.8042 91.3321
L17.7090 91.2845
" />
<path d="M17.7090 91.2845
L17.6614 91.1893
" />
<path d="M17.6614 91.1893
L17.6614 91.0464
" />
<path d="M17.6614 91.0464
L17.7090 90.9512
" />
<path d="M17.7090 90.9512
L17.8042 90.9036
" />
<path d="M17.8042 90.9036
L18.3280 90.9036
" />
</g><path d="M15.2232 87.1750
L19.6096 87.1750
" />
<path d="M15.2232 103.7750
L19.6096 103.7750
" />
<path d="M19.0232 87.1750
L19.0232 103.7750
" />
<path d="M19.0232 87.1750
L19.0232 103.7750
" />
<path d="M19.0232 87.1750
L19.6096 88.3015
" />
<path d="M19.0232 87.1750
L18.4368 88.3015
" />
<path d="M19.0232 103.7750
L18.4368 102.6485
" />
<path d="M19.0232 103.7750
L19.6096 102.6485
" />
<text x="13.4732" y="84.0250"
textLength="8.8417" font-size="1.3333" lengthAdjust="spacingAndGlyphs"
text-anchor="middle" opacity="0">2.5000 mm</text>
<g class="stroked-text"><desc>2.5000 mm</desc>
<path d="M9.3304 83.0751
L9.3780 83.0274
" />
<path d="M9.3780 83.0274
L9.4732 82.9798
" />
<path d="M9.4732 82.9798
L9.7113 82.9798
" />
<path d="M9.7113 82.9798
L9.8065 83.0274
" />
<path d="M9.8065 83.0274
L9.8542 83.0751
" />
<path d="M9.8542 83.0751
L9.9018 83.1703
" />
<path d="M9.9018 83.1703
L9.9018 83.2655
" />
<path d="M9.9018 83.2655
L9.8542 83.4084
" />
<path d="M9.8542 83.4084
L9.2827 83.9798
" />
<path d="M9.2827 83.9798
L9.9018 83.9798
" />
<path d="M10.3304 83.8846
L10.3780 83.9322
" />
<path d="M10.3780 83.9322
L10.3304 83.9798
" />
<path d="M10.3304 83.9798
L10.2827 83.9322
" />
<path d="M10.2827 83.9322
L10.3304 83.8846
" />
<path d="M10.3304 83.8846
L10.3304 83.9798
" />
<path d="M11.2827 82.9798
L10.8065 82.9798
" />
<path d="M10.8065 82.9798
L10.7589 83.4560
" />
<path d="M10.7589 83.4560
L10.8065 83.4084
" />
<path d="M10.8065 83.4084
L10.9018 83.3608
" />
<path d="M10.9018 83.3608
L11.1399 83.3608
" />
<path d="M11.1399 83.3608
L11.2351 83.4084
" />
<path d="M11.2351 83.4084
L11.2827 83.4560
" />
<path d="M11.2827 83.4560
L11.3304 83.5512
" />
<path d="M11.3304 83.5512
L11.3304 83.7893
" />
<path d="M11.3304 83.7893
L11.2827 83.8846
" />
<path d="M11.2827 83.8846
L11.2351 83.9322
" />
<path d="M11.2351 83.9322
L11.1399 83.9798
" />
<path d="M11.1399 83.9798
L10.9018 83.9798
" />
<path d="M10.9018 83.9798
L10.8065 83.9322
" />
<path d="M10.8065 83.9322
L10.7589 83.8846
" />
<path d="M11.9494 82.9798
L12.0446 82.9798
" />
<path d="M12.0446 82.9798
L12.1399 83.0274
" />
<path d="M12.1399 83.0274
L12.1875 83.0751
" />
<path d="M12.1875 83.0751
L12.2351 83.1703
" />
<path d="M12.2351 83.1703
L12.2827 83.3608
" />
<path d="M12.2827 83.3608
L12.2827 83.5989
" />
<path d="M12.2827 83.5989
L12.2351 83.7893
" />
<path d="M12.2351 83.7893
L12.1875 83.8846
" />
<path d="M12.1875 83.8846
L12.1399 83.9322
" />
<path d="M12.1399 83.9322
L12.0446 83.9798
" />
<path d="M12.0446 83.9798
L11.9494 83.9798
" />
<path d="M11.9494 83.9798
L11.8542 83.9322
" />
<path d="M11.8542 83.9322
L11.8065 83.8846
" />
<path d="M11.8065 83.8846
L11.7589 83.7893
" />
<path d="M11.7589 83.7893
L11.7113 83.5989
" />
<path d="M11.7113 83.5989
L11.7113 83.3608
" />
<path d="M11.7113 83.3608
L11.7589 83.1703
" />
<path d="M11.7589 83.1703
L11.8065 83.0751
" />
<path d="M11.8065 83.0751
L11.8542 83.0274
" />
<path d="M11.8542 83.0274
L11.9494 82.9798
" />
<path d="M12.9018 82.9798
L12.9970 82.9798
" />
<path d="M12.9970 82.9798
L13.0923 83.0274
" />
<path d="M13.0923 83.0274
L13.1399 83.0751
" />
<path d="M13.1399 83.0751
L13.1875 83.1703
" />
<path d="M13.1875 83.1703
L13.2351 83.3608
" />
<path d="M13.2351 83.3608
L13.2351 83.5989
" />
<path d="M13.2351 83.5989
L13.1875 83.7893
" />
<path d="M13.1875 83.7893
L13.1399 83.8846
" />
<path d="M13.1399 83.8846
L13.0923 83.9322
" />
<path d="M13.0923 83.9322
L12.9970 83.9798
" />
<path d="M12.9970 83.9798
L12.9018 83.9798
" />
<path d="M12.9018 83.9798
L12.8065 83.9322
" />
<path d="M12.8065 83.9322
L12.7589 83.8846
" />
<path d="M12.7589 83.8846
L12.7113 83.7893
" />
<path d="M12.7113 83.7893
L12.6637 83.5989
" />
<path d="M12.6637 83.5989
L12.6637 83.3608
" />
<path d="M12.6637 83.3608
L12.7113 83.1703
" />
<path d="M12.7113 83.1703
L12.7589 83.0751
" />
<path d="M12.7589 83.0751
L12.8065 83.0274
" />
<path d="M12.8065 83.0274
L12.9018 82.9798
" />
<path d="M13.8542 82.9798
L13.9494 82.9798
" />
<path d="M13.9494 82.9798
L14.0446 83.0274
" />
<path d="M14.0446 83.0274
L14.0923 83.0751
" />
<path d="M14.0923 83.0751
L14.1399 83.1703
" />
<path d="M14.1399 83.1703
L14.1875 83.3608
" />
<path d="M14.1875 83.3608
L14.1875 83.5989
" />
<path d="M14.1875 83.5989
L14.1399 83.7893
" />
<path d="M14.1399 83.7893
L14.0923 83.8846
" />
<path d="M14.0923 83.8846
L14.0446 83.9322
" />
<path d="M14.0446 83.9322
L13.9494 83.9798
" />
<path d="M13.9494 83.9798
L13.8542 83.9798
" />
<path d="M13.8542 83.9798
L13.7589 83.9322
" />
<path d="M13.7589 83.9322
L13.7113 83.8846
" />
<path d="M13.7113 83.8846
L13.6637 83.7893
" />
<path d="M13.6637 83.7893
L13.6161 83.5989
" />
<path d="M13.6161 83.5989
L13.6161 83.3608
" />
<path d="M13.6161 83.3608
L13.6637 83.1703
" />
<path d="M13.6637 83.1703
L13.7113 83.0751
" />
<path d="M13.7113 83.0751
L13.7589 83.0274
" />
<path d="M13.7589 83.0274
L13.8542 82.9798
" />
<path d="M15.3780 83.9798
L15.3780 83.3132
" />
<path d="M15.3780 83.4084
L15.4256 83.3608
" />
<path d="M15.4256 83.3608
L15.5208 83.3132
" />
<path d="M15.5208 83.3132
L15.6637 83.3132
" />
<path d="M15.6637 83.3132
L15.7589 83.3608
" />
<path d="M15.7589 83.3608
L15.8065 83.4560
" />
<path d="M15.8065 83.4560
L15.8065 83.9798
" />
<path d="M15.8065 83.4560
L15.8542 83.3608
" />
<path d="M15.8542 83.3608
L15.9494 83.3132
" />
<path d="M15.9494 83.3132
L16.0923 83.3132
" />
<path d="M16.0923 83.3132
L16.1875 83.3608
" />
<path d="M16.1875 83.3608
L16.2351 83.4560
" />
<path d="M16.2351 83.4560
L16.2351 83.9798
" />
<path d="M16.7113 83.9798
L16.7113 83.3132
" />
<path d="M16.7113 83.4084
L16.7589 83.3608
" />
<path d="M16.7589 83.3608
L16.8542 83.3132
" />
<path d="M16.8542 83.3132
L16.9970 83.3132
" />
<path d="M16.9970 83.3132
L17.0923 83.3608
" />
<path d="M17.0923 83.3608
L17.1399 83.4560
" />
<path d="M17.1399 83.4560
L17.1399 83.9798
" />
<path d="M17.1399 83.4560
L17.1875 83.3608
" />
<path d="M17.1875 83.3608
L17.2827 83.3132
" />
<path d="M17.2827 83.3132
L17.4256 83.3132
" />
<path d="M17.4256 83.3132
L17.5208 83.3608
" />
<path d="M17.5208 83.3608
L17.5685 83.4560
" />
<path d="M17.5685 83.4560
L17.5685 83.9798
" />
</g><path d="M14.7232 86.6750
L14.7232 84.0886
" />
<path d="M12.2232 86.6750
L12.2232 84.0886
" />
<path d="M14.7232 84.6750
L12.2232 84.6750
" />
<path d="M14.7232 84.6750
L12.2232 84.6750
" />
<path d="M14.7232 84.6750
L13.5967 85.2614
" />
<path d="M14.7232 84.6750
L13.5967 84.0886
" />
<path d="M12.2232 84.6750
L13.3497 84.0886
" />
<path d="M12.2232 84.6750
L13.3497 85.2614
" />
<g transform="rotate(-90.000000 18.5732 4.0750)">
<text x="18.5732" y="4.5750"
textLength="8.8417" font-size="1.3333" lengthAdjust="spacingAndGlyphs"
text-anchor="middle" opacity="0">6.4000 mm</text>
</g>
<g class="stroked-text"><desc>6.4000 mm</desc>
<path d="M18.0280 7.7417
L18.0280 7.9321
" />
<path d="M18.0280 7.9321
L18.0757 8.0274
" />
<path d="M18.0757 8.0274
L18.1233 8.0750
" />
<path d="M18.1233 8.0750
L18.2661 8.1702
" />
<path d="M18.2661 8.1702
L18.4566 8.2179
" />
<path d="M18.4566 8.2179
L18.8376 8.2179
" />
<path d="M18.8376 8.2179
L18.9328 8.1702
" />
<path d="M18.9328 8.1702
L18.9804 8.1226
" />
<path d="M18.9804 8.1226
L19.0280 8.0274
" />
<path d="M19.0280 8.0274
L19.0280 7.8369
" />
<path d="M19.0280 7.8369
L18.9804 7.7417
" />
<path d="M18.9804 7.7417
L18.9328 7.6940
" />
<path d="M18.9328 7.6940
L18.8376 7.6464
" />
<path d="M18.8376 7.6464
L18.5995 7.6464
" />
<path d="M18.5995 7.6464
L18.5042 7.6940
" />
<path d="M18.5042 7.6940
L18.4566 7.7417
" />
<path d="M18.4566 7.7417
L18.4090 7.8369
" />
<path d="M18.4090 7.8369
L18.4090 8.0274
" />
<path d="M18.4090 8.0274
L18.4566 8.1226
" />
<path d="M18.4566 8.1226
L18.5042 8.1702
" />
<path d="M18.5042 8.1702
L18.5995 8.2179
" />
<path d="M18.9328 7.2179
L18.9804 7.1702
" />
<path d="M18.9804 7.1702
L19.0280 7.2179
" />
<path d="M19.0280 7.2179
L18.9804 7.2655
" />
<path d="M18.9804 7.2655
L18.9328 7.2179
" />
<path d="M18.9328 7.2179
L19.0280 7.2179
" />
<path d="M18.3614 6.3131
L19.0280 6.3131
" />
<path d="M17.9804 6.5512
L18.6947 6.7893
" />
<path d="M18.6947 6.7893
L18.6947 6.1702
" />
<path d="M18.0280 5.5988
L18.0280 5.5036
" />
<path d="M18.0280 5.5036
L18.0757 5.4083
" />
<path d="M18.0757 5.4083
L18.1233 5.3607
" />
<path d="M18.1233 5.3607
L18.2185 5.3131
" />
<path d="M18.2185 5.3131
L18.4090 5.2655
" />
<path d="M18.4090 5.2655
L18.6471 5.2655
" />
<path d="M18.6471 5.2655
L18.8376 5.3131
" />
<path d="M18.8376 5.3131
L18.9328 5.3607
" />
<path d="M18.9328 5.3607
L18.9804 5.4083
" />
<path d="M18.9804 5.4083
L19.0280 5.5036
" />
<path d="M19.0280 5.5036
L19.0280 5.5988
" />
<path d="M19.0280 5.5988
L18.9804 5.6940
" />
<path d="M18.9804 5.6940
L18.9328 5.7417
" />
<path d="M18.9328 5.7417
L18.8376 5.7893
" />
<path d="M18.8376 5.7893
L18.6471 5.8369
" />
<path d="M18.6471 5.8369
L18.4090 5.8369
" />
<path d="M18.4090 5.8369
L18.2185 5.7893
" />
<path d="M18.2185 5.7893
L18.1233 5.7417
" />
<path d="M18.1233 5.7417
L18.0757 5.6940
" />
<path d="M18.0757 5.6940
L18.0280 5.5988
" />
<path d="M18.0280 4.6464
L18.0280 4.5512
" />
<path d="M18.0280 4.5512
L18.0757 4.4560
" />
<path d="M18.0757 4.4560
L18.1233 4.4083
" />
<path d="M18.1233 4.4083
L18.2185 4.3607
" />
<path d="M18.2185 4.3607
L18.4090 4.3131
" />
<path d="M18.4090 4.3131
L18.6471 4.3131
" />
<path d="M18.6471 4.3131
L18.8376 4.3607
" />
<path d="M18.8376 4.3607
L18.9328 4.4083
" />
<path d="M18.9328 4.4083
L18.9804 4.4560
" />
<path d="M18.9804 4.4560
L19.0280 4.5512
" />
<path d="M19.0280 4.5512
L19.0280 4.6464
" />
<path d="M19.0280 4.6464
L18.9804 4.7417
" />
<path d="M18.9804 4.7417
L18.9328 4.7893
" />
<path d="M18.9328 4.7893
L18.8376 4.8369
" />
<path d="M18.8376 4.8369
L18.6471 4.8845
" />
<path d="M18.6471 4.8845
L18.4090 4.8845
" />
<path d="M18.4090 4.8845
L18.2185 4.8369
" />
<path d="M18.2185 4.8369
L18.1233 4.7893
" />
<path d="M18.1233 4.7893
L18.0757 4.7417
" />
<path d="M18.0757 4.7417
L18.0280 4.6464
" />
<path d="M18.0280 3.6940
L18.0280 3.5988
" />
<path d="M18.0280 3.5988
L18.0757 3.5036
" />
<path d="M18.0757 3.5036
L18.1233 3.4560
" />
<path d="M18.1233 3.4560
L18.2185 3.4083
" />
<path d="M18.2185 3.4083
L18.4090 3.3607
" />
<path d="M18.4090 3.3607
L18.6471 3.3607
" />
<path d="M18.6471 3.3607
L18.8376 3.4083
" />
<path d="M18.8376 3.4083
L18.9328 3.4560
" />
<path d="M18.9328 3.4560
L18.9804 3.5036
" />
<path d="M18.9804 3.5036
L19.0280 3.5988
" />
<path d="M19.0280 3.5988
L19.0280 3.6940
" />
<path d="M19.0280 3.6940
L18.9804 3.7893
" />
<path d="M18.9804 3.7893
L18.9328 3.8369
" />
<path d="M18.9328 3.8369
L18.8376 3.8845
" />
<path d="M18.8376 3.8845
L18.6471 3.9321
" />
<path d="M18.6471 3.9321
L18.4090 3.9321
" />
<path d="M18.4090 3.9321
L18.2185 3.8845
" />
<path d="M18.2185 3.8845
L18.1233 3.8369
" />
<path d="M18.1233 3.8369
L18.0757 3.7893
" />
<path d="M18.0757 3.7893
L18.0280 3.6940
" />
<path d="M19.0280 2.1702
L18.3614 2.1702
" />
<path d="M18.4566 2.1702
L18.4090 2.1226
" />
<path d="M18.4090 2.1226
L18.3614 2.0274
" />
<path d="M18.3614 2.0274
L18.3614 1.8845
" />
<path d="M18.3614 1.8845
L18.4090 1.7893
" />
<path d="M18.4090 1.7893
L18.5042 1.7417
" />
<path d="M18.5042 1.7417
L19.0280 1.7417
" />
<path d="M18.5042 1.7417
L18.4090 1.6940
" />
<path d="M18.4090 1.6940
L18.3614 1.5988
" />
<path d="M18.3614 1.5988
L18.3614 1.4560
" />
<path d="M18.3614 1.4560
L18.4090 1.3607
" />
<path d="M18.4090 1.3607
L18.5042 1.3131
" />
<path d="M18.5042 1.3131
L19.0280 1.3131
" />
<path d="M19.0280 0.8369
L18.3614 0.8369
" />
<path d="M18.4566 0.8369
L18.4090 0.7893
" />
<path d="M18.4090 0.7893
L18.3614 0.6940
" />
<path d="M18.3614 0.6940
L18.3614 0.5512
" />
<path d="M18.3614 0.5512
L18.4090 0.4560
" />
<path d="M18.4090 0.4560
L18.5042 0.4083
" />
<path d="M18.5042 0.4083
L19.0280 0.4083
" />
<path d="M18.5042 0.4083
L18.4090 0.3607
" />
<path d="M18.4090 0.3607
L18.3614 0.2655
" />
<path d="M18.3614 0.2655
L18.3614 0.1226
" />
<path d="M18.3614 0.1226
L18.4090 0.0274
" />
<path d="M18.4090 0.0274
L18.5042 -0.0202
" />
<path d="M18.5042 -0.0202
L19.0280 -0.0202
" />
</g><path d="M15.2232 7.2750
L20.3096 7.2750
" />
<path d="M15.2232 0.8750
L20.3096 0.8750
" />
<path d="M19.7232 7.2750
L19.7232 0.8750
" />
<path d="M19.7232 7.2750
L19.7232 0.8750
" />
<path d="M19.7232 7.2750
L19.1368 6.1485
" />
<path d="M19.7232 7.2750
L20.3096 6.1485
" />
<path d="M19.7232 0.8750
L20.3096 2.0015
" />
<path d="M19.7232 0.8750
L19.1368 2.0015
" />
<text x="13.4732" y="10.7250"
textLength="8.8417" font-size="1.3333" lengthAdjust="spacingAndGlyphs"
text-anchor="middle" opacity="0">2.5000 mm</text>
<g class="stroked-text"><desc>2.5000 mm</desc>
<path d="M9.3304 9.7751
L9.3780 9.7274
" />
<path d="M9.3780 9.7274
L9.4732 9.6798
" />
<path d="M9.4732 9.6798
L9.7113 9.6798
" />
<path d="M9.7113 9.6798
L9.8065 9.7274
" />
<path d="M9.8065 9.7274
L9.8542 9.7751
" />
<path d="M9.8542 9.7751
L9.9018 9.8703
" />
<path d="M9.9018 9.8703
L9.9018 9.9655
" />
<path d="M9.9018 9.9655
L9.8542 10.1084
" />
<path d="M9.8542 10.1084
L9.2827 10.6798
" />
<path d="M9.2827 10.6798
L9.9018 10.6798
" />
<path d="M10.3304 10.5846
L10.3780 10.6322
" />
<path d="M10.3780 10.6322
L10.3304 10.6798
" />
<path d="M10.3304 10.6798
L10.2827 10.6322
" />
<path d="M10.2827 10.6322
L10.3304 10.5846
" />
<path d="M10.3304 10.5846
L10.3304 10.6798
" />
<path d="M11.2827 9.6798
L10.8065 9.6798
" />
<path d="M10.8065 9.6798
L10.7589 10.1560
" />
<path d="M10.7589 10.1560
L10.8065 10.1084
" />
<path d="M10.8065 10.1084
L10.9018 10.0608
" />
<path d="M10.9018 10.0608
L11.1399 10.0608
" />
<path d="M11.1399 10.0608
L11.2351 10.1084
" />
<path d="M11.2351 10.1084
L11.2827 10.1560
" />
<path d="M11.2827 10.1560
L11.3304 10.2512
" />
<path d="M11.3304 10.2512
L11.3304 10.4893
" />
<path d="M11.3304 10.4893
L11.2827 10.5846
" />
<path d="M11.2827 10.5846
L11.2351 10.6322
" />
<path d="M11.2351 10.6322
L11.1399 10.6798
" />
<path d="M11.1399 10.6798
L10.9018 10.6798
" />
<path d="M10.9018 10.6798
L10.8065 10.6322
" />
<path d="M10.8065 10.6322
L10.7589 10.5846
" />
<path d="M11.9494 9.6798
L12.0446 9.6798
" />
<path d="M12.0446 9.6798
L12.1399 9.7274
" />
<path d="M12.1399 9.7274
L12.1875 9.7751
" />
<path d="M12.1875 9.7751
L12.2351 9.8703
" />
<path d="M12.2351 9.8703
L12.2827 10.0608
" />
<path d="M12.2827 10.0608
L12.2827 10.2989
" />
<path d="M12.2827 10.2989
L12.2351 10.4893
" />
<path d="M12.2351 10.4893
L12.1875 10.5846
" />
<path d="M12.1875 10.5846
L12.1399 10.6322
" />
<path d="M12.1399 10.6322
L12.0446 10.6798
" />
<path d="M12.0446 10.6798
L11.9494 10.6798
" />
<path d="M11.9494 10.6798
L11.8542 10.6322
" />
<path d="M11.8542 10.6322
L11.8065 10.5846
" />
<path d="M11.8065 10.5846
L11.7589 10.4893
" />
<path d="M11.7589 10.4893
L11.7113 10.2989
" />
<path d="M11.7113 10.2989
L11.7113 10.0608
" />
<path d="M11.7113 10.0608
L11.7589 9.8703
" />
<path d="M11.7589 9.8703
L11.8065 9.7751
" />
<path d="M11.8065 9.7751
L11.8542 9.7274
" />
<path d="M11.8542 9.7274
L11.9494 9.6798
" />
<path d="M12.9018 9.6798
L12.9970 9.6798
" />
<path d="M12.9970 9.6798
L13.0923 9.7274
" />
<path d="M13.0923 9.7274
L13.1399 9.7751
" />
<path d="M13.1399 9.7751
L13.1875 9.8703
" />
<path d="M13.1875 9.8703
L13.2351 10.0608
" />
<path d="M13.2351 10.0608
L13.2351 10.2989
" />
<path d="M13.2351 10.2989
L13.1875 10.4893
" />
<path d="M13.1875 10.4893
L13.1399 10.5846
" />
<path d="M13.1399 10.5846
L13.0923 10.6322
" />
<path d="M13.0923 10.6322
L12.9970 10.6798
" />
<path d="M12.9970 10.6798
L12.9018 10.6798
" />
<path d="M12.9018 10.6798
L12.8065 10.6322
" />
<path d="M12.8065 10.6322
L12.7589 10.5846
" />
<path d="M12.7589 10.5846
L12.7113 10.4893
" />
<path d="M12.7113 10.4893
L12.6637 10.2989
" />
<path d="M12.6637 10.2989
L12.6637 10.0608
" />
<path d="M12.6637 10.0608
L12.7113 9.8703
" />
<path d="M12.7113 9.8703
L12.7589 9.7751
" />
<path d="M12.7589 9.7751
L12.8065 9.7274
" />
<path d="M12.8065 9.7274
L12.9018 9.6798
" />
<path d="M13.8542 9.6798
L13.9494 9.6798
" />
<path d="M13.9494 9.6798
L14.0446 9.7274
" />
<path d="M14.0446 9.7274
L14.0923 9.7751
" />
<path d="M14.0923 9.7751
L14.1399 9.8703
" />
<path d="M14.1399 9.8703
L14.1875 10.0608
" />
<path d="M14.1875 10.0608
L14.1875 10.2989
" />
<path d="M14.1875 10.2989
L14.1399 10.4893
" />
<path d="M14.1399 10.4893
L14.0923 10.5846
" />
<path d="M14.0923 10.5846
L14.0446 10.6322
" />
<path d="M14.0446 10.6322
L13.9494 10.6798
" />
<path d="M13.9494 10.6798
L13.8542 10.6798
" />
<path d="M13.8542 10.6798
L13.7589 10.6322
" />
<path d="M13.7589 10.6322
L13.7113 10.5846
" />
<path d="M13.7113 10.5846
L13.6637 10.4893
" />
<path d="M13.6637 10.4893
L13.6161 10.2989
" />
<path d="M13.6161 10.2989
L13.6161 10.0608
" />
<path d="M13.6161 10.0608
L13.6637 9.8703
" />
<path d="M13.6637 9.8703
L13.7113 9.7751
" />
<path d="M13.7113 9.7751
L13.7589 9.7274
" />
<path d="M13.7589 9.7274
L13.8542 9.6798
" />
<path d="M15.3780 10.6798
L15.3780 10.0132
" />
<path d="M15.3780 10.1084
L15.4256 10.0608
" />
<path d="M15.4256 10.0608
L15.5208 10.0132
" />
<path d="M15.5208 10.0132
L15.6637 10.0132
" />
<path d="M15.6637 10.0132
L15.7589 10.0608
" />
<path d="M15.7589 10.0608
L15.8065 10.1560
" />
<path d="M15.8065 10.1560
L15.8065 10.6798
" />
<path d="M15.8065 10.1560
L15.8542 10.0608
" />
<path d="M15.8542 10.0608
L15.9494 10.0132
" />
<path d="M15.9494 10.0132
L16.0923 10.0132
" />
<path d="M16.0923 10.0132
L16.1875 10.0608
" />
<path d="M16.1875 10.0608
L16.2351 10.1560
" />
<path d="M16.2351 10.1560
L16.2351 10.6798
" />
<path d="M16.7113 10.6798
L16.7113 10.0132
" />
<path d="M16.7113 10.1084
L16.7589 10.0608
" />
<path d="M16.7589 10.0608
L16.8542 10.0132
" />
<path d="M16.8542 10.0132
L16.9970 10.0132
" />
<path d="M16.9970 10.0132
L17.0923 10.0608
" />
<path d="M17.0923 10.0608
L17.1399 10.1560
" />
<path d="M17.1399 10.1560
L17.1399 10.6798
" />
<path d="M17.1399 10.1560
L17.1875 10.0608
" />
<path d="M17.1875 10.0608
L17.2827 10.0132
" />
<path d="M17.2827 10.0132
L17.4256 10.0132
" />
<path d="M17.4256 10.0132
L17.5208 10.0608
" />
<path d="M17.5208 10.0608
L17.5685 10.1560
" />
<path d="M17.5685 10.1560
L17.5685 10.6798
" />
</g><path d="M14.7232 7.7750
L14.7232 11.9614
" />
<path d="M12.2232 7.7750
L12.2232 11.9614
" />
<path d="M14.7232 11.3750
L12.2232 11.3750
" />
<path d="M14.7232 11.3750
L12.2232 11.3750
" />
<path d="M14.7232 11.3750
L13.5967 11.9614
" />
<path d="M14.7232 11.3750
L13.5967 10.7886
" />
<path d="M12.2232 11.3750
L13.3497 10.7886
" />
<path d="M12.2232 11.3750
L13.3497 11.9614
" />
<text x="43.9732" y="13.1250"
textLength="8.8417" font-size="1.3333" lengthAdjust="spacingAndGlyphs"
text-anchor="middle" opacity="0">7.7000 mm</text>
<g class="stroked-text"><desc>7.7000 mm</desc>
<path d="M39.7827 12.0798
L40.4494 12.0798
" />
<path d="M40.4494 12.0798
L40.0208 13.0798
" />
<path d="M40.8304 12.9846
L40.8780 13.0322
" />
<path d="M40.8780 13.0322
L40.8304 13.0798
" />
<path d="M40.8304 13.0798
L40.7827 13.0322
" />
<path d="M40.7827 13.0322
L40.8304 12.9846
" />
<path d="M40.8304 12.9846
L40.8304 13.0798
" />
<path d="M41.2113 12.0798
L41.8780 12.0798
" />
<path d="M41.8780 12.0798
L41.4494 13.0798
" />
<path d="M42.4494 12.0798
L42.5446 12.0798
" />
<path d="M42.5446 12.0798
L42.6399 12.1274
" />
<path d="M42.6399 12.1274
L42.6875 12.1751
" />
<path d="M42.6875 12.1751
L42.7351 12.2703
" />
<path d="M42.7351 12.2703
L42.7827 12.4608
" />
<path d="M42.7827 12.4608
L42.7827 12.6989
" />
<path d="M42.7827 12.6989
L42.7351 12.8893
" />
<path d="M42.7351 12.8893
L42.6875 12.9846
" />
<path d="M42.6875 12.9846
L42.6399 13.0322
" />
<path d="M42.6399 13.0322
L42.5446 13.0798
" />
<path d="M42.5446 13.0798
L42.4494 13.0798
" />
<path d="M42.4494 13.0798
L42.3542 13.0322
" />
<path d="M42.3542 13.0322
L42.3065 12.9846
" />
<path d="M42.3065 12.9846
L42.2589 12.8893
" />
<path d="M42.2589 12.8893
L42.2113 12.6989
" />
<path d="M42.2113 12.6989
L42.2113 12.4608
" />
<path d="M42.2113 12.4608
L42.2589 12.2703
" />
<path d="M42.2589 12.2703
L42.3065 12.1751
" />
<path d="M42.3065 12.1751
L42.3542 12.1274
" />
<path d="M42.3542 12.1274
L42.4494 12.0798
" />
<path d="M43.4018 12.0798
L43.4970 12.0798
" />
<path d="M43.4970 12.0798
L43.5923 12.1274
" />
<path d="M43.5923 12.1274
L43.6399 12.1751
" />
<path d="M43.6399 12.1751
L43.6875 12.2703
" />
<path d="M43.6875 12.2703
L43.7351 12.4608
" />
<path d="M43.7351 12.4608
L43.7351 12.6989
" />
<path d="M43.7351 12.6989
L43.6875 12.8893
" />
<path d="M43.6875 12.8893
L43.6399 12.9846
" />
<path d="M43.6399 12.9846
L43.5923 13.0322
" />
<path d="M43.5923 13.0322
L43.4970 13.0798
" />
<path d="M43.4970 13.0798
L43.4018 13.0798
" />
<path d="M43.4018 13.0798
L43.3065 13.0322
" />
<path d="M43.3065 13.0322
L43.2589 12.9846
" />
<path d="M43.2589 12.9846
L43.2113 12.8893
" />
<path d="M43.2113 12.8893
L43.1637 12.6989
" />
<path d="M43.1637 12.6989
L43.1637 12.4608
" />
<path d="M43.1637 12.4608
L43.2113 12.2703
" />
<path d="M43.2113 12.2703
L43.2589 12.1751
" />
<path d="M43.2589 12.1751
L43.3065 12.1274
" />
<path d="M43.3065 12.1274
L43.4018 12.0798
" />
<path d="M44.3542 12.0798
L44.4494 12.0798
" />
<path d="M44.4494 12.0798
L44.5446 12.1274
" />
<path d="M44.5446 12.1274
L44.5923 12.1751
" />
<path d="M44.5923 12.1751
L44.6399 12.2703
" />
<path d="M44.6399 12.2703
L44.6875 12.4608
" />
<path d="M44.6875 12.4608
L44.6875 12.6989
" />
<path d="M44.6875 12.6989
L44.6399 12.8893
" />
<path d="M44.6399 12.8893
L44.5923 12.9846
" />
<path d="M44.5923 12.9846
L44.5446 13.0322
" />
<path d="M44.5446 13.0322
L44.4494 13.0798
" />
<path d="M44.4494 13.0798
L44.3542 13.0798
" />
<path d="M44.3542 13.0798
L44.2589 13.0322
" />
<path d="M44.2589 13.0322
L44.2113 12.9846
" />
<path d="M44.2113 12.9846
L44.1637 12.8893
" />
<path d="M44.1637 12.8893
L44.1161 12.6989
" />
<path d="M44.1161 12.6989
L44.1161 12.4608
" />
<path d="M44.1161 12.4608
L44.1637 12.2703
" />
<path d="M44.1637 12.2703
L44.2113 12.1751
" />
<path d="M44.2113 12.1751
L44.2589 12.1274
" />
<path d="M44.2589 12.1274
L44.3542 12.0798
" />
<path d="M45.8780 13.0798
L45.8780 12.4132
" />
<path d="M45.8780 12.5084
L45.9256 12.4608
" />
<path d="M45.9256 12.4608
L46.0208 12.4132
" />
<path d="M46.0208 12.4132
L46.1637 12.4132
" />
<path d="M46.1637 12.4132
L46.2589 12.4608
" />
<path d="M46.2589 12.4608
L46.3065 12.5560
" />
<path d="M46.3065 12.5560
L46.3065 13.0798
" />
<path d="M46.3065 12.5560
L46.3542 12.4608
" />
<path d="M46.3542 12.4608
L46.4494 12.4132
" />
<path d="M46.4494 12.4132
L46.5923 12.4132
" />
<path d="M46.5923 12.4132
L46.6875 12.4608
" />
<path d="M46.6875 12.4608
L46.7351 12.5560
" />
<path d="M46.7351 12.5560
L46.7351 13.0798
" />
<path d="M47.2113 13.0798
L47.2113 12.4132
" />
<path d="M47.2113 12.5084
L47.2589 12.4608
" />
<path d="M47.2589 12.4608
L47.3542 12.4132
" />
<path d="M47.3542 12.4132
L47.4970 12.4132
" />
<path d="M47.4970 12.4132
L47.5923 12.4608
" />
<path d="M47.5923 12.4608
L47.6399 12.5560
" />
<path d="M47.6399 12.5560
L47.6399 13.0798
" />
<path d="M47.6399 12.5560
L47.6875 12.4608
" />
<path d="M47.6875 12.4608
L47.7827 12.4132
" />
<path d="M47.7827 12.4132
L47.9256 12.4132
" />
<path d="M47.9256 12.4132
L48.0208 12.4608
" />
<path d="M48.0208 12.4608
L48.0685 12.5560
" />
<path d="M48.0685 12.5560
L48.0685 13.0798
" />
</g><path d="M40.1232 10.0750
L40.1232 14.3614
" />
<path d="M47.8232 10.0750
L47.8232 14.3614
" />
<path d="M40.1232 13.7750
L47.8232 13.7750
" />
<path d="M40.1232 13.7750
L47.8232 13.7750
" />
<path d="M40.1232 13.7750
L41.2497 13.1886
" />
<path d="M40.1232 13.7750
L41.2497 14.3614
" />
<path d="M47.8232 13.7750
L46.6967 14.3614
" />
<path d="M47.8232 13.7750
L46.6967 13.1886
" />
<g transform="rotate(-90.000000 5.3732 52.3250)">
<text x="5.3732" y="52.8250"
textLength="10.7464" font-size="1.3333" lengthAdjust="spacingAndGlyphs"
text-anchor="middle" opacity="0">102.9000 mm</text>
</g>
<g class="stroked-text"><desc>102.9000 mm</desc>
<path d="M5.8280 56.8488
L5.8280 57.4202
" />
<path d="M5.8280 57.1345
L4.8280 57.1345
" />
<path d="M4.8280 57.1345
L4.9709 57.2298
" />
<path d="M4.9709 57.2298
L5.0661 57.3250
" />
<path d="M5.0661 57.3250
L5.1137 57.4202
" />
<path d="M4.8280 56.2298
L4.8280 56.1345
" />
<path d="M4.8280 56.1345
L4.8757 56.0393
" />
<path d="M4.8757 56.0393
L4.9233 55.9917
" />
<path d="M4.9233 55.9917
L5.0185 55.9440
" />
<path d="M5.0185 55.9440
L5.2090 55.8964
" />
<path d="M5.2090 55.8964
L5.4471 55.8964
" />
<path d="M5.4471 55.8964
L5.6376 55.9440
" />
<path d="M5.6376 55.9440
L5.7328 55.9917
" />
<path d="M5.7328 55.9917
L5.7804 56.0393
" />
<path d="M5.7804 56.0393
L5.8280 56.1345
" />
<path d="M5.8280 56.1345
L5.8280 56.2298
" />
<path d="M5.8280 56.2298
L5.7804 56.3250
" />
<path d="M5.7804 56.3250
L5.7328 56.3726
" />
<path d="M5.7328 56.3726
L5.6376 56.4202
" />
<path d="M5.6376 56.4202
L5.4471 56.4679
" />
<path d="M5.4471 56.4679
L5.2090 56.4679
" />
<path d="M5.2090 56.4679
L5.0185 56.4202
" />
<path d="M5.0185 56.4202
L4.9233 56.3726
" />
<path d="M4.9233 56.3726
L4.8757 56.3250
" />
<path d="M4.8757 56.3250
L4.8280 56.2298
" />
<path d="M4.9233 55.5155
L4.8757 55.4679
" />
<path d="M4.8757 55.4679
L4.8280 55.3726
" />
<path d="M4.8280 55.3726
L4.8280 55.1345
" />
<path d="M4.8280 55.1345
L4.8757 55.0393
" />
<path d="M4.8757 55.0393
L4.9233 54.9917
" />
<path d="M4.9233 54.9917
L5.0185 54.9440
" />
<path d="M5.0185 54.9440
L5.1137 54.9440
" />
<path d="M5.1137 54.9440
L5.2566 54.9917
" />
<path d="M5.2566 54.9917
L5.8280 55.5631
" />
<path d="M5.8280 55.5631
L5.8280 54.9440
" />
<path d="M5.7328 54.5155
L5.7804 54.4679
" />
<path d="M5.7804 54.4679
L5.8280 54.5155
" />
<path d="M5.8280 54.5155
L5.7804 54.5631
" />
<path d="M5.7804 54.5631
L5.7328 54.5155
" />
<path d="M5.7328 54.5155
L5.8280 54.5155
" />
<path d="M5.8280 53.9917
L5.8280 53.8012
" />
<path d="M5.8280 53.8012
L5.7804 53.7060
" />
<path d="M5.7804 53.7060
L5.7328 53.6583
" />
<path d="M5.7328 53.6583
L5.5899 53.5631
" />
<path d="M5.5899 53.5631
L5.3995 53.5155
" />
<path d="M5.3995 53.5155
L5.0185 53.5155
" />
<path d="M5.0185 53.5155
L4.9233 53.5631
" />
<path d="M4.9233 53.5631
L4.8757 53.6107
" />
<path d="M4.8757 53.6107
L4.8280 53.7060
" />
<path d="M4.8280 53.7060
L4.8280 53.8964
" />
<path d="M4.8280 53.8964
L4.8757 53.9917
" />
<path d="M4.8757 53.9917
L4.9233 54.0393
" />
<path d="M4.9233 54.0393
L5.0185 54.0869
" />
<path d="M5.0185 54.0869
L5.2566 54.0869
" />
<path d="M5.2566 54.0869
L5.3518 54.0393
" />
<path d="M5.3518 54.0393
L5.3995 53.9917
" />
<path d="M5.3995 53.9917
L5.4471 53.8964
" />
<path d="M5.4471 53.8964
L5.4471 53.7060
" />
<path d="M5.4471 53.7060
L5.3995 53.6107
" />
<path d="M5.3995 53.6107
L5.3518 53.5631
" />
<path d="M5.3518 53.5631
L5.2566 53.5155
" />
<path d="M4.8280 52.8964
L4.8280 52.8012
" />
<path d="M4.8280 52.8012
L4.8757 52.7060
" />
<path d="M4.8757 52.7060
L4.9233 52.6583
" />
<path d="M4.9233 52.6583
L5.0185 52.6107
" />
<path d="M5.0185 52.6107
L5.2090 52.5631
" />
<path d="M5.2090 52.5631
L5.4471 52.5631
" />
<path d="M5.4471 52.5631
L5.6376 52.6107
" />
<path d="M5.6376 52.6107
L5.7328 52.6583
" />
<path d="M5.7328 52.6583
L5.7804 52.7060
" />
<path d="M5.7804 52.7060
L5.8280 52.8012
" />
<path d="M5.8280 52.8012
L5.8280 52.8964
" />
<path d="M5.8280 52.8964
L5.7804 52.9917
" />
<path d="M5.7804 52.9917
L5.7328 53.0393
" />
<path d="M5.7328 53.0393
L5.6376 53.0869
" />
<path d="M5.6376 53.0869
L5.4471 53.1345
" />
<path d="M5.4471 53.1345
L5.2090 53.1345
" />
<path d="M5.2090 53.1345
L5.0185 53.0869
" />
<path d="M5.0185 53.0869
L4.9233 53.0393
" />
<path d="M4.9233 53.0393
L4.8757 52.9917
" />
<path d="M4.8757 52.9917
L4.8280 52.8964
" />
<path d="M4.8280 51.9440
L4.8280 51.8488
" />
<path d="M4.8280 51.8488
L4.8757 51.7536
" />
<path d="M4.8757 51.7536
L4.9233 51.7060
" />
<path d="M4.9233 51.7060
L5.0185 51.6583
" />
<path d="M5.0185 51.6583
L5.2090 51.6107
" />
<path d="M5.2090 51.6107
L5.4471 51.6107
" />
<path d="M5.4471 51.6107
L5.6376 51.6583
" />
<path d="M5.6376 51.6583
L5.7328 51.7060
" />
<path d="M5.7328 51.7060
L5.7804 51.7536
" />
<path d="M5.7804 51.7536
L5.8280 51.8488
" />
<path d="M5.8280 51.8488
L5.8280 51.9440
" />
<path d="M5.8280 51.9440
L5.7804 52.0393
" />
<path d="M5.7804 52.0393
L5.7328 52.0869
" />
<path d="M5.7328 52.0869
L5.6376 52.1345
" />
<path d="M5.6376 52.1345
L5.4471 52.1821
" />
<path d="M5.4471 52.1821
L5.2090 52.1821
" />
<path d="M5.2090 52.1821
L5.0185 52.1345
" />
<path d="M5.0185 52.1345
L4.9233 52.0869
" />
<path d="M4.9233 52.0869
L4.8757 52.0393
" />
<path d="M4.8757 52.0393
L4.8280 51.9440
" />
<path d="M4.8280 50.9917
L4.8280 50.8964
" />
<path d="M4.8280 50.8964
L4.8757 50.8012
" />
<path d="M4.8757 50.8012
L4.9233 50.7536
" />
<path d="M4.9233 50.7536
L5.0185 50.7060
" />
<path d="M5.0185 50.7060
L5.2090 50.6583
" />
<path d="M5.2090 50.6583
L5.4471 50.6583
" />
<path d="M5.4471 50.6583
L5.6376 50.7060
" />
<path d="M5.6376 50.7060
L5.7328 50.7536
" />
<path d="M5.7328 50.7536
L5.7804 50.8012
" />
<path d="M5.7804 50.8012
L5.8280 50.8964
" />
<path d="M5.8280 50.8964
L5.8280 50.9917
" />
<path d="M5.8280 50.9917
L5.7804 51.0869
" />
<path d="M5.7804 51.0869
L5.7328 51.1345
" />
<path d="M5.7328 51.1345
L5.6376 51.1821
" />
<path d="M5.6376 51.1821
L5.4471 51.2298
" />
<path d="M5.4471 51.2298
L5.2090 51.2298
" />
<path d="M5.2090 51.2298
L5.0185 51.1821
" />
<path d="M5.0185 51.1821
L4.9233 51.1345
" />
<path d="M4.9233 51.1345
L4.8757 51.0869
" />
<path d="M4.8757 51.0869
L4.8280 50.9917
" />
<path d="M5.8280 49.4679
L5.1614 49.4679
" />
<path d="M5.2566 49.4679
L5.2090 49.4202
" />
<path d="M5.2090 49.4202
L5.1614 49.3250
" />
<path d="M5.1614 49.3250
L5.1614 49.1821
" />
<path d="M5.1614 49.1821
L5.2090 49.0869
" />
<path d="M5.2090 49.0869
L5.3042 49.0393
" />
<path d="M5.3042 49.0393
L5.8280 49.0393
" />
<path d="M5.3042 49.0393
L5.2090 48.9917
" />
<path d="M5.2090 48.9917
L5.1614 48.8964
" />
<path d="M5.1614 48.8964
L5.1614 48.7536
" />
<path d="M5.1614 48.7536
L5.2090 48.6583
" />
<path d="M5.2090 48.6583
L5.3042 48.6107
" />
<path d="M5.3042 48.6107
L5.8280 48.6107
" />
<path d="M5.8280 48.1345
L5.1614 48.1345
" />
<path d="M5.2566 48.1345
L5.2090 48.0869
" />
<path d="M5.2090 48.0869
L5.1614 47.9917
" />
<path d="M5.1614 47.9917
L5.1614 47.8488
" />
<path d="M5.1614 47.8488
L5.2090 47.7536
" />
<path d="M5.2090 47.7536
L5.3042 47.7060
" />
<path d="M5.3042 47.7060
L5.8280 47.7060
" />
<path d="M5.3042 47.7060
L5.2090 47.6583
" />
<path d="M5.2090 47.6583
L5.1614 47.5631
" />
<path d="M5.1614 47.5631
L5.1614 47.4202
" />
<path d="M5.1614 47.4202
L5.2090 47.3250
" />
<path d="M5.2090 47.3250
L5.3042 47.2774
" />
<path d="M5.3042 47.2774
L5.8280 47.2774
" />
</g><path d="M11.7232 0.8750
L5.9368 0.8750
" />
<path d="M11.7232 103.7750
L5.9368 103.7750
" />
<path d="M6.5232 0.8750
L6.5232 103.7750
" />
<path d="M6.5232 0.8750
L6.5232 103.7750
" />
<path d="M6.5232 0.8750
L7.1096 2.0015
" />
<path d="M6.5232 0.8750
L5.9368 2.0015
" />
<path d="M6.5232 103.7750
L5.9368 102.6485
" />
<path d="M6.5232 103.7750
L7.1096 102.6485
" />
<text x="29.9732" y="16.9250"
textLength="9.7940" font-size="1.3333" lengthAdjust="spacingAndGlyphs"
text-anchor="middle" opacity="0">35.5000 mm</text>
<g class="stroked-text"><desc>35.5000 mm</desc>
<path d="M25.3065 15.8798
L25.9256 15.8798
" />
<path d="M25.9256 15.8798
L25.5923 16.2608
" />
<path d="M25.5923 16.2608
L25.7351 16.2608
" />
<path d="M25.7351 16.2608
L25.8304 16.3084
" />
<path d="M25.8304 16.3084
L25.8780 16.3560
" />
<path d="M25.8780 16.3560
L25.9256 16.4512
" />
<path d="M25.9256 16.4512
L25.9256 16.6893
" />
<path d="M25.9256 16.6893
L25.8780 16.7846
" />
<path d="M25.8780 16.7846
L25.8304 16.8322
" />
<path d="M25.8304 16.8322
L25.7351 16.8798
" />
<path d="M25.7351 16.8798
L25.4494 16.8798
" />
<path d="M25.4494 16.8798
L25.3542 16.8322
" />
<path d="M25.3542 16.8322
L25.3065 16.7846
" />
<path d="M26.8304 15.8798
L26.3542 15.8798
" />
<path d="M26.3542 15.8798
L26.3065 16.3560
" />
<path d="M26.3065 16.3560
L26.3542 16.3084
" />
<path d="M26.3542 16.3084
L26.4494 16.2608
" />
<path d="M26.4494 16.2608
L26.6875 16.2608
" />
<path d="M26.6875 16.2608
L26.7827 16.3084
" />
<path d="M26.7827 16.3084
L26.8304 16.3560
" />
<path d="M26.8304 16.3560
L26.8780 16.4512
" />
<path d="M26.8780 16.4512
L26.8780 16.6893
" />
<path d="M26.8780 16.6893
L26.8304 16.7846
" />
<path d="M26.8304 16.7846
L26.7827 16.8322
" />
<path d="M26.7827 16.8322
L26.6875 16.8798
" />
<path d="M26.6875 16.8798
L26.4494 16.8798
" />
<path d="M26.4494 16.8798
L26.3542 16.8322
" />
<path d="M26.3542 16.8322
L26.3065 16.7846
" />
<path d="M27.3065 16.7846
L27.3542 16.8322
" />
<path d="M27.3542 16.8322
L27.3065 16.8798
" />
<path d="M27.3065 16.8798
L27.2589 16.8322
" />
<path d="M27.2589 16.8322
L27.3065 16.7846
" />
<path d="M27.3065 16.7846
L27.3065 16.8798
" />
<path d="M28.2589 15.8798
L27.7827 15.8798
" />
<path d="M27.7827 15.8798
L27.7351 16.3560
" />
<path d="M27.7351 16.3560
L27.7827 16.3084
" />
<path d="M27.7827 16.3084
L27.8780 16.2608
" />
<path d="M27.8780 16.2608
L28.1161 16.2608
" />
<path d="M28.1161 16.2608
L28.2113 16.3084
" />
<path d="M28.2113 16.3084
L28.2589 16.3560
" />
<path d="M28.2589 16.3560
L28.3065 16.4512
" />
<path d="M28.3065 16.4512
L28.3065 16.6893
" />
<path d="M28.3065 16.6893
L28.2589 16.7846
" />
<path d="M28.2589 16.7846
L28.2113 16.8322
" />
<path d="M28.2113 16.8322
L28.1161 16.8798
" />
<path d="M28.1161 16.8798
L27.8780 16.8798
" />
<path d="M27.8780 16.8798
L27.7827 16.8322
" />
<path d="M27.7827 16.8322
L27.7351 16.7846
" />
<path d="M28.9256 15.8798
L29.0208 15.8798
" />
<path d="M29.0208 15.8798
L29.1161 15.9274
" />
<path d="M29.1161 15.9274
L29.1637 15.9751
" />
<path d="M29.1637 15.9751
L29.2113 16.0703
" />
<path d="M29.2113 16.0703
L29.2589 16.2608
" />
<path d="M29.2589 16.2608
L29.2589 16.4989
" />
<path d="M29.2589 16.4989
L29.2113 16.6893
" />
<path d="M29.2113 16.6893
L29.1637 16.7846
" />
<path d="M29.1637 16.7846
L29.1161 16.8322
" />
<path d="M29.1161 16.8322
L29.0208 16.8798
" />
<path d="M29.0208 16.8798
L28.9256 16.8798
" />
<path d="M28.9256 16.8798
L28.8304 16.8322
" />
<path d="M28.8304 16.8322
L28.7827 16.7846
" />
<path d="M28.7827 16.7846
L28.7351 16.6893
" />
<path d="M28.7351 16.6893
L28.6875 16.4989
" />
<path d="M28.6875 16.4989
L28.6875 16.2608
" />
<path d="M28.6875 16.2608
L28.7351 16.0703
" />
<path d="M28.7351 16.0703
L28.7827 15.9751
" />
<path d="M28.7827 15.9751
L28.8304 15.9274
" />
<path d="M28.8304 15.9274
L28.9256 15.8798
" />
<path d="M29.8780 15.8798
L29.9732 15.8798
" />
<path d="M29.9732 15.8798
L30.0685 15.9274
" />
<path d="M30.0685 15.9274
L30.1161 15.9751
" />
<path d="M30.1161 15.9751
L30.1637 16.0703
" />
<path d="M30.1637 16.0703
L30.2113 16.2608
" />
<path d="M30.2113 16.2608
L30.2113 16.4989
" />
<path d="M30.2113 16.4989
L30.1637 16.6893
" />
<path d="M30.1637 16.6893
L30.1161 16.7846
" />
<path d="M30.1161 16.7846
L30.0685 16.8322
" />
<path d="M30.0685 16.8322
L29.9732 16.8798
" />
<path d="M29.9732 16.8798
L29.8780 16.8798
" />
<path d="M29.8780 16.8798
L29.7827 16.8322
" />
<path d="M29.7827 16.8322
L29.7351 16.7846
" />
<path d="M29.7351 16.7846
L29.6875 16.6893
" />
<path d="M29.6875 16.6893
L29.6399 16.4989
" />
<path d="M29.6399 16.4989
L29.6399 16.2608
" />
<path d="M29.6399 16.2608
L29.6875 16.0703
" />
<path d="M29.6875 16.0703
L29.7351 15.9751
" />
<path d="M29.7351 15.9751
L29.7827 15.9274
" />
<path d="M29.7827 15.9274
L29.8780 15.8798
" />
<path d="M30.8304 15.8798
L30.9256 15.8798
" />
<path d="M30.9256 15.8798
L31.0208 15.9274
" />
<path d="M31.0208 15.9274
L31.0685 15.9751
" />
<path d="M31.0685 15.9751
L31.1161 16.0703
" />
<path d="M31.1161 16.0703
L31.1637 16.2608
" />
<path d="M31.1637 16.2608
L31.1637 16.4989
" />
<path d="M31.1637 16.4989
L31.1161 16.6893
" />
<path d="M31.1161 16.6893
L31.0685 16.7846
" />
<path d="M31.0685 16.7846
L31.0208 16.8322
" />
<path d="M31.0208 16.8322
L30.9256 16.8798
" />
<path d="M30.9256 16.8798
L30.8304 16.8798
" />
<path d="M30.8304 16.8798
L30.7351 16.8322
" />
<path d="M30.7351 16.8322
L30.6875 16.7846
" />
<path d="M30.6875 16.7846
L30.6399 16.6893
" />
<path d="M30.6399 16.6893
L30.5923 16.4989
" />
<path d="M30.5923 16.4989
L30.5923 16.2608
" />
<path d="M30.5923 16.2608
L30.6399 16.0703
" />
<path d="M30.6399 16.0703
L30.6875 15.9751
" />
<path d="M30.6875 15.9751
L30.7351 15.9274
" />
<path d="M30.7351 15.9274
L30.8304 15.8798
" />
<path d="M32.3542 16.8798
L32.3542 16.2132
" />
<path d="M32.3542 16.3084
L32.4018 16.2608
" />
<path d="M32.4018 16.2608
L32.4970 16.2132
" />
<path d="M32.4970 16.2132
L32.6399 16.2132
" />
<path d="M32.6399 16.2132
L32.7351 16.2608
" />
<path d="M32.7351 16.2608
L32.7827 16.3560
" />
<path d="M32.7827 16.3560
L32.7827 16.8798
" />
<path d="M32.7827 16.3560
L32.8304 16.2608
" />
<path d="M32.8304 16.2608
L32.9256 16.2132
" />
<path d="M32.9256 16.2132
L33.0685 16.2132
" />
<path d="M33.0685 16.2132
L33.1637 16.2608
" />
<path d="M33.1637 16.2608
L33.2113 16.3560
" />
<path d="M33.2113 16.3560
L33.2113 16.8798
" />
<path d="M33.6875 16.8798
L33.6875 16.2132
" />
<path d="M33.6875 16.3084
L33.7351 16.2608
" />
<path d="M33.7351 16.2608
L33.8304 16.2132
" />
<path d="M33.8304 16.2132
L33.9732 16.2132
" />
<path d="M33.9732 16.2132
L34.0685 16.2608
" />
<path d="M34.0685 16.2608
L34.1161 16.3560
" />
<path d="M34.1161 16.3560
L34.1161 16.8798
" />
<path d="M34.1161 16.3560
L34.1637 16.2608
" />
<path d="M34.1637 16.2608
L34.2589 16.2132
" />
<path d="M34.2589 16.2132
L34.4018 16.2132
" />
<path d="M34.4018 16.2132
L34.4970 16.2608
" />
<path d="M34.4970 16.2608
L34.5446 16.3560
" />
<path d="M34.5446 16.3560
L34.5446 16.8798
" />
</g><path d="M12.2232 1.3750
L12.2232 18.1614
" />
<path d="M47.7232 1.3750
L47.7232 18.1614
" />
<path d="M12.2232 17.5750
L47.7232 17.5750
" />
<path d="M12.2232 17.5750
L47.7232 17.5750
" />
<path d="M12.2232 17.5750
L13.3497 16.9886
" />
<path d="M12.2232 17.5750
L13.3497 18.1614
" />
<path d="M47.7232 17.5750
L46.5967 18.1614
" />
<path d="M47.7232 17.5750
L46.5967 16.9886
" />
<path style="fill:#000000; fill-opacity:0.0; 
stroke:#000000; stroke-width:0.1500; stroke-opacity:1; 
stroke-linecap:round; stroke-linejoin:round;fill:none"
d="M 36.2232,0.0750
44.0232,0.0750
44.0232,9.5750
36.2232,9.5750
Z" /> 
<circle cx="14.7232" cy="7.2750" r="1.6000" /> 
<circle cx="27.4232" cy="101.1750" r="1.5264" /> 
<circle cx="14.7232" cy="87.1750" r="1.5033" /> 
<path style="fill:#000000; fill-opacity:0.0; 
stroke:#000000; stroke-width:0.1500; stroke-opacity:1; 
stroke-linecap:round; stroke-linejoin:round;fill:none"
d="M 12.2232,0.8750
47.7232,0.8750
47.7232,103.7750
12.2232,103.7750
Z" /> 
<g >
</g>
<g >
</g>
<g >
</g>
<g >
</g>
<g >
</g>
<g >
</g>
<g >
</g>
<g >
</g>
<g >
</g>
<g >
</g>
<g >
</g>
<g >
</g>
<g >
</g>
<g >
</g>
<g >
</g>
<g >
</g>
<g >
</g>
<g >
</g>
<g >
</g>
<g >
</g>
<g >
</g>
<g >
</g>
<g >
</g>
<g >
</g>
<g >
</g>
<g >
</g>
<g >
</g>
<g >
</g>
<g >
</g>
<g >
</g>
<g >
</g>
<g >
</g>
<g >
</g>
<g >
</g>
<g >
</g>
<g >
</g>
<g >
</g>
<g >
</g>
<g >
</g>
<g >
</g>
<g >
</g>
<g >
</g>
<g >
</g>
<g >
</g>
<g >
</g>
<g >
</g>
<g >
</g>
<g >
</g>
<g >
</g>
<g >
</g>
<g >
</g>
<g >
</g>
<g >
</g>
<g >
</g>
<g >
</g>
<g >
</g>
<g >
</g>
<g >
</g>
<g >
</g>
<g >
</g>
<g >
</g>
<g >
</g>
<g >
</g>
<g >
</g>
<g >
</g>
<g >
</g>
<g >
</g>
<g >
</g>
<g >
</g>
<g >
</g>
<g >
</g>
<g >
</g>
<g >
</g>
<g >
</g>
<g >
</g>
<g >
</g>
<g >
</g>
<g >
</g>
<g >
</g>
<g >
</g>
<g >
</g>
<g >
</g>
<g >
</g>
<g >
</g>
<g >
</g>
<g >
</g>
<g >
</g>
<g >
</g>
<g >
</g>
<g >
</g>
<g >
</g>
<g >
</g>
<g >
</g>
<g >
</g>
<g >
</g>
<g >
</g>
<g >
</g>
<g >
</g>
<g >
</g>
<g >
</g>
<g >
</g>
<g >
</g>
<g >
</g>
<g >
</g>
<g >
</g>
<g >
</g>
<g >
</g>
<g >
</g>
<g >
</g>
<g >
</g>
<g >
</g>
<g >
</g>
<g >
</g>
<g >
</g>
<g >
</g>
<g >
</g>
<g >
</g>
<g >
</g>
<g >
</g>
<g >
</g>
<g >
</g>
<g >
</g>
<g >
</g>
<g >
</g>
<g >
</g>
<g >
</g>
<g >
</g>
<g >
</g>
<g >
</g>
<g >
</g>
<g >
</g>
<g >
</g>
<g >
</g>
<g >
</g>
<g >
</g>
<g >
</g>
<g >
</g>
<g >
</g>
<g >
</g>
<g >
</g>
<g >
</g>
<g >
</g>
<g >
</g>
<g >
</g>
<g >
</g>
<g >
</g>
<g >
</g>
<g >
</g>
<g >
</g>
<g >
</g>
<g >
</g>
<g >
</g>
<g >
</g>
<g >
</g>
<g >
</g>
<g >
</g>
<g >
</g>
<g >
</g>
<g >
</g>
<g >
</g>
<g >
</g>
<g >
</g>
<g >
</g>
<g >
</g>
<g >
</g>
<g >
</g>
<g >
</g>
<g >
</g>
<g >
</g>
<g >
</g>
<g >
</g>
<g >
</g>
<g >
</g>
<g >
</g>
<g >
</g>
<g >
</g>
<g >
</g>
<g >
</g>
<g >
</g>
<g >
</g>
<g >
</g>
<g >
</g>
<g >
</g>
<g >
</g>
<g >
</g>
<g >
</g>
<g >
</g>
<g >
</g>
<g >
</g>
</g> 
</svg>
